<?xml version="1.0" encoding="UTF-8"?>
<svg version="1.1" xmlns="http://www.w3.org/2000/svg" width="24" height="24">
<path d="M0 0 C2.66015625 1.171875 2.66015625 1.171875 5 3 C5.48828125 5.91796875 5.48828125 5.91796875 5.3125 9.1875 C5.24482422 10.81751953 5.24482422 10.81751953 5.17578125 12.48046875 C5.11777344 13.31191406 5.05976563 14.14335937 5 15 C-1.08823529 19.01823529 -1.08823529 19.01823529 -5.125 18.9375 C-8.2283736 17.92553035 -10.42088923 17.01506484 -13 15 C-13.48828125 12.08203125 -13.48828125 12.08203125 -13.3125 8.8125 C-13.26738281 7.72582031 -13.22226563 6.63914062 -13.17578125 5.51953125 C-13.11777344 4.68808594 -13.05976563 3.85664062 -13 3 C-5.65873016 -1.8452381 -5.65873016 -1.8452381 0 0 Z M-5 2 C-3.68 2.99 -2.36 3.98 -1 5 C-0.34 4.67 0.32 4.34 1 4 C-1.81509993 1.7226499 -1.81509993 1.7226499 -5 2 Z M-7 5 C-6.67 5.66 -6.34 6.32 -6 7 C-5.01 6.67 -4.02 6.34 -3 6 C-4.32 5.67 -5.64 5.34 -7 5 Z M-11 7 C-11 8.98 -11 10.96 -11 13 C-9.02 13.99 -7.04 14.98 -5 16 C-4.66602213 13.12586875 -4.66602213 13.12586875 -5 10 C-7.04040776 7.95959224 -8.08325244 7 -11 7 Z M-1.125 8.125 C-3.34224813 9.93621543 -3.34224813 9.93621543 -3.25 13.1875 C-3.1675 14.115625 -3.085 15.04375 -3 16 C-1.02 15.01 0.96 14.02 3 13 C3 11.02 3 9.04 3 7 C0.8938588 6.84403743 0.8938588 6.84403743 -1.125 8.125 Z " fill="#005933" transform="translate(16,3)"/>
</svg>
